<svg viewBox="0 0 40 40" fill="none" xmlns="http://www.w3.org/2000/svg">
  <rect x="2" y="2" width="36" height="36" rx="8" fill="white" />
  <defs>
    <linearGradient id="prism-grad" x1="6" y1="20" x2="34" y2="20" gradientUnits="userSpaceOnUse">
      <stop offset="0%" stop-color="#00f2ff" />
      <stop offset="50%" stop-color="#0066ff" />
      <stop offset="100%" stop-color="#ff9500" />
    </linearGradient>
  </defs>
  <path d="M20 6 L6 20 L20 34 Z" fill="#00f2ff" opacity="0.2" />
  <path d="M20 6 L34 20 L20 34 Z" fill="#ff9500" opacity="0.2" />
  <path d="M20 6 L34 20 L20 34 L6 20 Z" stroke="url(#prism-grad)" stroke-width="1.2" stroke-linejoin="round" />
  <line x1="20" y1="6" x2="20" y2="34" stroke="white" stroke-width="0.8" opacity="0.2" />
  <path d="M13 14 L17 20 L13 26" stroke="#00f2ff" stroke-width="1.2" stroke-linecap="round" stroke-linejoin="round" />
  <path d="M27 14 L23 20 L27 26" stroke="#ff9500" stroke-width="1.2" stroke-linecap="round" stroke-linejoin="round" />
  <rect x="17" y="17" width="3" height="3" rx="0.5" fill="#00f2ff" opacity="0.5" />
  <rect x="21" y="17" width="3" height="3" rx="0.5" fill="#0066ff" opacity="0.4" />
  <rect x="17" y="21" width="3" height="3" rx="0.5" fill="#0066ff" opacity="0.4" />
  <rect x="21" y="21" width="3" height="3" rx="0.5" fill="#ff9500" opacity="0.5" />
  <circle cx="20" cy="20" r="1.5" fill="white" opacity="0.85" />
</svg>